<svg xmlns="http://www.w3.org/2000/svg" width="297mm" height="210mm" viewBox="0 0 29700 21000" shape-rendering="geometricPrecision" text-rendering="geometricPrecision" image-rendering="optimizeQuality" fill-rule="evenodd" clip-rule="evenodd"><defs><style>.str0{stroke:#f8b398;stroke-width:26.45;stroke-linecap:round;stroke-linejoin:round}.fil1{fill:none}.fil0{fill:#f8b398}.fil2{fill:#fff}</style></defs><g id="Camada_x0020_1"><g id="_2833893657760"><path class="fil0" d="M20676 9860c935-581 2134-485 2591 157 457 643 68 1634-868 2215-935 580-2118 672-2574 29-457-642-85-1821 851-2401zm590 322c601-265 1076 44 1269 538 194 494-90 1056-633 1256s-1140-39-1333-533c-194-494 95-995 697-1261zM3243 12609c302 79 334 79 566-140 544-500 991-1017 1429-1632 134-147-111-112-242-112-500 2-915-118-964-764-32-259 149-481 445-296 332 235 806 187 1093 187 228 0 407-34 539-218 415-598 796-1264 1150-1962 102-213 119-250-107-385-701-428-788-687-187-742 698-77 1408 162 1676 1099 362 1180 707 2383 1104 3517 94 267 292 543 501 654 267 155 247 382-125 569-571 305-806 275-986-342l-318-1286c-123-394-179-425-593-374l-1608 145c-461 35-398 85-766 545-568 772-1166 1514-1781 2238-385 405-713 369-1002 32-329-347-306-856 176-733zm3448-2937c-100 223-90 246 214 254 444 21 737 40 1183-14 288-25 290-69 212-368-146-501-269-908-488-1311-130-220-177-242-334-31-307 485-568 975-787 1470zM13972 10050c347 159 610 164 569-393-73-405-471-525-1074-466-816 48-2367 931-2594 2268-68 785 487 1226 1580 1184 819-53 1370-136 2060-532 535-296 207-699-140-511-557 318-982 397-1639 425-659 43-1216-478-833-1314 452-796 1068-1003 2071-661zM17904 11296l127 1118c54 403 109 504 499 395 283-97 510-416 475-558-220-195-308-683-318-1143l-4-1143c5-223-1-276-250-238-457 95-429 118-624 556-250 725-658 1194-981 1418-378 208-573 154-519-243 73-468 163-926 302-1379 98-226 5-374-213-471-304-181-603-254-649 265l-244 1563c-148 1199 404 1464 1420 846 352-217 695-584 979-986z"/><path class="fil1 str0" d="M25320 8824c-24 47 4 85 7 133M25331 8826c6 53 52 68 81 107M25327 8948c42 11 51 58 81 94M25407 8925c40-14 74 20 119 33M25325 8949c-38 18-38 66-60 108M25407 8928c-21 37 6 76 11 123M25327 8950l8 96M25409 8929l59 74"/><path class="fil0" d="M24172 7534c398-323 897-1186 1684-1183-350 44-519 297-713 468 265-90 494-356 763-432-178 183-403 284-579 474 204-23 477-411 702-411-142 82-290 273-453 374 149-33 316-251 459-258-112 57-203 174-298 240 67-38 215-131 289-150l176-54c-129 53-232 162-366 218 102 32 242-119 333-117-426 460-1618 853-1540 1222-180-207-264-290-457-391z"/><path class="fil0" d="M24600 7864c490-355 1134-1268 2062-1314-416 67-631 336-871 523 318-108 605-395 928-489-222 198-494 315-713 520 242-36 588-449 854-463-173 92-359 296-559 410 179-43 390-276 558-293-136 66-250 191-367 264 82-42 263-147 351-171l211-66c-156 62-284 180-445 246 118 26 293-137 400-141-531 497-1963 973-1894 1345-199-201-293-280-515-371z"/><path class="fil0" d="M21969 7392c311-103 1014-190 1296-252 215-282 482-343 800-184 83 7 283 402 581 417 207 45 958 618 1268 1231 63 97 335 497 503 746l-268-283c248 358 557 695 883 1026-227-104-673-697-859-903 219 398 612 679 771 1084-441-657-1208-1592-1648-1436-86-98-777-342-984-574-66-91-576-878-1034-979-310-60-1008 64-1309 107z"/><ellipse class="fil2" transform="matrix(-1.20967 .41997 .41997 1.20967 23588.9 7149.35)" rx="42" ry="38"/></g></g></svg>