<svg id="Layer_1" xmlns="http://www.w3.org/2000/svg" viewBox="0 0 699 222"><style>.st0{fill:#f8b398}.st1{fill:none;stroke:#f8b398;stroke-width:26.45;stroke-linecap:round;stroke-linejoin:round}.st2{fill:#fff}</style><g id="Camada_x0020_1"><g id="_2833893657760"><path class="st0" d="M511.1 108.5c26.5-16.5 60.5-13.7 73.4 4.5 13 18.2 1.9 46.3-24.6 62.8-26.5 16.4-60 19-73 .8-12.9-18.2-2.3-51.7 24.2-68.1zm16.7 9.1c17-7.5 30.5 1.2 36 15.3 5.5 14-2.6 29.9-17.9 35.6-15.4 5.7-32.3-1.1-37.8-15.1s2.7-28.2 19.7-35.8zM16.9 186.4c8.6 2.2 9.5 2.2 16-4 15.4-14.2 28.1-28.8 40.5-46.3 3.8-4.2-3.1-3.2-6.9-3.2-14.2.1-25.9-3.3-27.3-21.7-.9-7.3 4.2-13.6 12.6-8.4 9.4 6.7 22.8 5.3 31 5.3 6.5 0 11.5-1 15.3-6.2 11.8-17 22.6-35.8 32.6-55.6 2.9-6 3.4-7.1-3-10.9-19.9-12.1-22.3-19.5-5.3-21 19.8-2.2 39.9 4.6 47.5 31.2 10.3 33.4 20 67.5 31.3 99.7 2.7 7.6 8.3 15.4 14.2 18.5 7.6 4.4 7 10.8-3.5 16.1-16.2 8.6-22.8 7.8-27.9-9.7l-9-36.5c-3.5-11.2-5.1-12-16.8-10.6l-45.6 4.1c-13.1 1-11.3 2.4-21.7 15.4-16.1 21.9-33.1 42.9-50.5 63.4-10.9 11.5-20.2 10.5-28.4.9-9.4-9.5-8.7-24 4.9-20.5zm97.8-83.2c-2.8 6.3-2.6 7 6.1 7.2 12.6.6 20.9 1.1 33.5-.4 8.2-.7 8.2-2 6-10.4-4.1-14.2-7.6-25.7-13.8-37.2-3.7-6.2-5-6.9-9.5-.9-8.7 13.7-16.1 27.6-22.3 41.7zM321.1 113.9c9.8 4.5 17.3 4.6 16.1-11.1-2.1-11.5-13.4-14.9-30.4-13.2-23.1 1.4-67.1 26.4-73.5 64.3-1.9 22.3 13.8 34.8 44.8 33.6 23.2-1.5 38.8-3.9 58.4-15.1 15.2-8.4 5.9-19.8-4-14.5-15.8 9-27.8 11.3-46.5 12-18.7 1.2-34.5-13.5-23.6-37.2 12.8-22.6 30.2-28.5 58.7-18.8zM432.5 149.2l3.6 31.7c1.5 11.4 3.1 14.3 14.1 11.2 8-2.7 14.5-11.8 13.5-15.8-6.2-5.5-8.7-19.4-9-32.4l-.1-32.4c.1-6.3 0-7.8-7.1-6.7-13 2.7-12.2 3.3-17.7 15.8-7.1 20.6-18.7 33.8-27.8 40.2-10.7 5.9-16.2 4.4-14.7-6.9 2.1-13.3 4.6-26.2 8.6-39.1 2.8-6.4.1-10.6-6-13.4-8.6-5.1-17.1-7.2-18.4 7.5l-6.9 44.3c-4.2 34 11.5 41.5 40.3 24 9.8-6.2 19.6-16.6 27.6-28z"/><path class="st1" d="M642.7 79.1c-.7 1.3.1 2.4.2 3.8M643 79.2c.2 1.5 1.5 1.9 2.3 3M642.9 82.6c1.2.3 1.4 1.6 2.3 2.7M645.2 82c1.1-.4 2.1.6 3.4.9M642.9 82.7c-1.1.5-1.1 1.9-1.7 3.1M645.2 82.1c-.6 1 .2 2.2.3 3.5M642.9 82.7l.3 2.7M645.3 82.1l1.6 2.1"/><path class="st0" d="M610.2 42.6c11.3-9.2 25.4-33.6 47.7-33.5-9.9 1.2-14.7 8.4-20.2 13.3 7.5-2.6 14-10.1 21.6-12.2-5 5.2-11.4 8.1-16.4 13.4 5.8-.7 13.5-11.7 19.9-11.7-4 2.3-8.2 7.7-12.8 10.6 4.2-.9 9-7.1 13-7.3-3.2 1.6-5.8 4.9-8.4 6.8 1.9-1.1 6.1-3.7 8.2-4.3l5-1.5c-3.7 1.5-6.6 4.6-10.4 6.2 2.9.9 6.9-3.4 9.4-3.3-12.1 13-45.9 24.2-43.7 34.6-5.1-5.9-7.4-8.3-12.9-11.1z"/><path class="st0" d="M622.3 51.9c13.9-10.1 32.1-35.9 58.5-37.2-11.8 1.9-17.9 9.5-24.7 14.8 9-3.1 17.1-11.2 26.3-13.9-6.3 5.6-14 8.9-20.2 14.7 6.9-1 16.7-12.7 24.2-13.1-4.9 2.6-10.2 8.4-15.8 11.6 5.1-1.2 11.1-7.8 15.8-8.3-3.9 1.9-7.1 5.4-10.4 7.5 2.3-1.2 7.5-4.2 9.9-4.8l6-1.9c-4.4 1.8-8.1 5.1-12.6 7 3.3.7 8.3-3.9 11.3-4-15.1 14.1-55.6 27.6-53.7 38.1-5.6-5.7-8.3-7.9-14.6-10.5z"/><path class="st0" d="M547.7 38.5c8.8-2.9 28.7-5.4 36.7-7.1 6.1-8 13.7-9.7 22.7-5.2 2.4.2 8 11.4 16.5 11.8 5.9 1.3 27.2 17.5 35.9 34.9 1.8 2.7 9.5 14.1 14.3 21.1l-7.6-8c7 10.1 15.8 19.7 25 29.1-6.4-2.9-19.1-19.8-24.3-25.6 6.2 11.3 17.3 19.2 21.9 30.7-12.5-18.6-34.2-45.1-46.7-40.7-2.4-2.8-22-9.7-27.9-16.3-1.9-2.6-16.3-24.9-29.3-27.8-8.8-1.6-28.6 1.9-37.2 3.1z"/><ellipse transform="rotate(-19.144 593.62 31.626)" class="st2" cx="593.7" cy="31.7" rx="1.5" ry="1.4"/></g></g></svg>