<svg xmlns="http://www.w3.org/2000/svg" id="Layer_1" viewBox="0 0 169.6 74.8"><style>.st0{fill:#9a9999}.st1{fill:#db5e5e}</style><path class="st0" d="M20.5 48.3c-1.1 0-2.2-.2-3.2-.6-1-.4-1.8-1-2.5-1.7s-1.3-1.6-1.7-2.6c-.4-1-.6-2-.6-3.1v-.1c0-1.1.2-2.1.6-3.1.4-1 1-1.8 1.7-2.6.7-.7 1.5-1.3 2.5-1.7 1-.4 2-.6 3.2-.6.7 0 1.4.1 2 .2.6.1 1.1.3 1.6.6.5.2 1 .5 1.4.9.4.3.8.7 1.2 1.1l-1.5 1.6c-.6-.6-1.3-1.2-2-1.6-.7-.5-1.6-.7-2.7-.7-.8 0-1.5.2-2.2.5-.7.3-1.3.7-1.8 1.3-.5.5-.9 1.2-1.2 1.9-.3.7-.4 1.5-.4 2.3v.1c0 .8.1 1.6.4 2.3.3.7.7 1.4 1.2 1.9s1.1 1 1.8 1.3c.7.3 1.4.5 2.3.5 1 0 1.9-.2 2.6-.7.8-.4 1.5-1 2.1-1.6l1.5 1.4c-.8.9-1.7 1.6-2.6 2.2-1.1.3-2.3.6-3.7.6M27.4 26.1h2.3v9.1c.5-.8 1.2-1.6 2-2.1.8-.6 1.9-.9 3.3-.9.9 0 1.8.1 2.5.5.7.3 1.3.7 1.9 1.3.5.5.9 1.2 1.2 2 .3.8.4 1.6.4 2.5V48h-2.3v-9c0-1.4-.4-2.6-1.1-3.4-.7-.8-1.8-1.3-3.2-1.3-.7 0-1.3.1-1.8.3-.6.2-1.1.6-1.5 1-.4.4-.7.9-1 1.5-.2.6-.3 1.3-.3 2V48h-2.3V26.1zM43.8 41.2c.1.8.3 1.5.6 2.2.3.6.7 1.2 1.2 1.6.5.4 1.1.8 1.7 1 .6.2 1.3.3 1.9.3 1.1 0 2-.2 2.8-.6.8-.4 1.5-.9 2.1-1.6l1.4 1.3c-.8.9-1.7 1.6-2.7 2.1-1 .5-2.2.8-3.7.8-1.1 0-2.1-.2-3-.6-.9-.4-1.8-.9-2.5-1.6-.7-.7-1.3-1.6-1.7-2.6-.4-1-.6-2.1-.6-3.3 0-1.1.2-2.2.6-3.2.4-1 .9-1.8 1.5-2.6.7-.7 1.4-1.3 2.3-1.7.9-.4 1.9-.6 3-.6s2.2.2 3.1.6c.9.4 1.7 1 2.3 1.7.6.7 1.1 1.6 1.4 2.6.3 1 .5 2.1.5 3.2v.8H43.8zm10-1.9c-.1-.7-.2-1.4-.4-2-.2-.6-.6-1.2-1-1.6-.4-.5-.9-.9-1.5-1.1-.6-.3-1.3-.4-2-.4s-1.3.1-1.9.4c-.6.3-1.1.6-1.5 1.1-.4.5-.8 1-1.1 1.7-.3.6-.5 1.3-.6 2.1h10zM64.9 48.3c-1.1 0-2.2-.2-3.2-.6-1-.4-1.8-1-2.5-1.7s-1.3-1.6-1.7-2.6c-.4-1-.6-2-.6-3.1v-.1c0-1.1.2-2.1.6-3.1.4-1 1-1.8 1.7-2.6.7-.7 1.5-1.3 2.5-1.7 1-.4 2-.6 3.2-.6.7 0 1.4.1 2 .2.6.1 1.1.3 1.6.6.5.2 1 .5 1.4.9.4.3.8.7 1.2 1.1l-1.5 1.6c-.6-.6-1.3-1.2-2-1.6-.7-.5-1.6-.7-2.7-.7-.8 0-1.5.2-2.2.5-.7.3-1.3.7-1.8 1.3-.5.5-.9 1.2-1.2 1.9-.3.7-.4 1.5-.4 2.3v.1c0 .8.1 1.6.4 2.3.3.7.7 1.4 1.2 1.9s1.1 1 1.8 1.3c.7.3 1.4.5 2.3.5 1 0 1.9-.2 2.6-.7.8-.4 1.5-1 2.1-1.6l1.5 1.4c-.8.9-1.7 1.6-2.6 2.2-1.1.3-2.3.6-3.7.6M75 39.7V26.1h-2.3v16zM86.9 31.8h-2.8L72.7 43.7V48H75v-4.1l3.2-3.2 5.5 7.3h2.7l-6.7-8.9z"/><path class="st1" d="M98.9 34.8c-.1.2-.3.3-.4.4-.1.1-.3.1-.5.1s-.5-.1-.7-.2c-.2-.1-.5-.2-.8-.3l-.9-.3c-.3-.1-.7-.2-1.2-.2-.6 0-1.1.1-1.4.4-.3.2-.5.6-.5 1 0 .3.1.6.3.8.2.2.5.4.9.5.4.2.8.3 1.2.4.5.1.9.3 1.4.5.5.2.9.4 1.4.6.5.2.9.5 1.2.8.4.3.6.7.9 1.2.2.5.3 1.1.3 1.7 0 .8-.1 1.6-.4 2.3-.3.7-.7 1.3-1.3 1.8-.6.5-1.3.9-2.2 1.2-.9.3-1.9.4-3 .4-.6 0-1.1-.1-1.7-.2-.6-.1-1.1-.2-1.6-.4l-1.5-.6c-.4-.2-.8-.5-1.1-.8l1.1-1.8c.1-.2.3-.4.5-.5.2-.1.4-.2.7-.2.3 0 .5.1.8.2.2.1.5.3.7.4.3.1.6.3.9.4.4.1.8.2 1.3.2.4 0 .7 0 1-.1.3-.1.5-.2.6-.3.2-.1.3-.3.3-.5.1-.2.1-.3.1-.5 0-.3-.1-.6-.3-.8-.2-.2-.5-.4-.9-.6-.4-.2-.8-.3-1.2-.4-.5-.1-.9-.3-1.4-.5-.5-.2-.9-.4-1.4-.6-.5-.2-.9-.5-1.2-.9-.4-.4-.7-.8-.9-1.3-.2-.5-.3-1.2-.3-1.9s.1-1.4.4-2c.3-.6.7-1.2 1.2-1.7s1.2-.9 2-1.1c.8-.3 1.8-.4 2.9-.4.6 0 1.2.1 1.7.2.6.1 1.1.3 1.6.4.5.2.9.4 1.3.7.4.3.8.5 1.1.9l-1 1.6zM107.7 48c-.8 0-1.5-.1-2.1-.3-.6-.2-1.1-.6-1.5-1-.4-.4-.7-.9-.9-1.5-.2-.6-.3-1.3-.3-2v-8.5h-1.4c-.3 0-.5-.1-.7-.2-.2-.2-.3-.4-.3-.7v-1.9l2.6-.5 1-4c.1-.5.5-.8 1.1-.8h2.6v4.8h4v3.4h-4V43c0 .4.1.7.3.9.2.2.5.4.8.4.2 0 .3 0 .5-.1.1 0 .2-.1.3-.1.1 0 .2-.1.3-.1.1 0 .2-.1.3-.1.1 0 .3 0 .4.1l.3.3 1.5 2.3c-.6.5-1.4.8-2.1 1.1-1 .1-1.8.3-2.7.3"/><path class="st1" d="M120.1 30.9c1.3 0 2.4.2 3.4.6 1 .4 1.9 1 2.7 1.7.7.7 1.3 1.6 1.7 2.7.4 1 .6 2.2.6 3.5 0 1.3-.2 2.5-.6 3.6-.4 1.1-1 2-1.7 2.7-.7.7-1.6 1.3-2.7 1.7-1 .4-2.2.6-3.4.6-1.3 0-2.4-.2-3.4-.6-1-.4-1.9-1-2.7-1.7-.7-.7-1.3-1.6-1.7-2.7-.4-1.1-.6-2.2-.6-3.6 0-1.3.2-2.5.6-3.5.4-1 1-1.9 1.7-2.7.7-.7 1.6-1.3 2.7-1.7 1-.4 2.1-.6 3.4-.6m0 13.4c1.1 0 2-.4 2.5-1.2.5-.8.8-2 .8-3.7 0-1.6-.3-2.9-.8-3.6-.5-.8-1.4-1.2-2.5-1.2-1.2 0-2 .4-2.6 1.2-.5.8-.8 2-.8 3.6s.3 2.9.8 3.7c.6.8 1.4 1.2 2.6 1.2M129.6 47.7V31.2h2.9c.2 0 .4 0 .6.1.2 0 .3.1.4.2.1.1.2.2.3.4.1.1.1.3.2.5l.3 1.5c.6-.9 1.3-1.7 2-2.2.8-.5 1.6-.8 2.5-.8.8 0 1.4.2 1.8.5L140 35c0 .2-.1.4-.3.5-.1.1-.3.1-.5.1s-.4 0-.6-.1c-.2 0-.6-.1-.9-.1-1.3 0-2.3.7-3.1 2.1v10.1h-5zM148.2 30.9c1.1 0 2.1.2 3 .5.9.3 1.7.8 2.3 1.5.7.6 1.2 1.4 1.5 2.4.4.9.5 2 .5 3.2v.9c0 .2-.1.4-.2.6l-.3.3c-.1.1-.3.1-.5.1H145c.2 1.4.6 2.4 1.3 3 .7.6 1.6.9 2.6.9.6 0 1.1-.1 1.5-.2.4-.1.8-.3 1.1-.5.3-.2.6-.3.9-.5.3-.1.6-.2.9-.2.4 0 .7.1.9.4l1.4 1.8c-.5.6-1.1 1.1-1.6 1.4-.6.4-1.2.7-1.8.9-.6.2-1.2.4-1.9.4-.6.1-1.2.1-1.8.1-1.2 0-2.2-.2-3.3-.6-1-.4-1.9-.9-2.7-1.7-.8-.7-1.4-1.7-1.8-2.8-.4-1.1-.7-2.4-.7-3.9 0-1.1.2-2.1.6-3.1.4-1 .9-1.9 1.6-2.6.7-.7 1.6-1.3 2.6-1.8 1-.2 2.2-.5 3.4-.5m.1 3.4c-.9 0-1.7.3-2.2.8-.5.5-.9 1.3-1.1 2.3h6.2c0-.4-.1-.8-.2-1.1-.1-.4-.3-.7-.5-1-.2-.3-.5-.5-.9-.7-.3-.2-.7-.3-1.3-.3"/><g><path class="st0" d="M48.9 14.4c0 1.1-.8 1.7-1.8 1.7H46v1.7h-.6v-5h1.7c1 0 1.8.5 1.8 1.6zm-.6 0c0-.7-.5-1.1-1.2-1.1H46v2.2h1.1c.7 0 1.2-.3 1.2-1.1zM53.2 15.3c0-1.4 1.1-2.6 2.5-2.6s2.5 1.2 2.5 2.6-1.1 2.6-2.5 2.6-2.5-1.2-2.5-2.6zm4.5 0c0-1.1-.8-2-1.9-2-1.1 0-1.9.9-1.9 2s.8 2 1.9 2c1.1 0 1.9-.9 1.9-2zM69.7 12.8l-1.6 5h-.7l-1.3-4.1-1.3 4.1h-.7l-1.6-5h.6l1.3 4.2 1.3-4.2h.6l1.3 4.2 1.3-4.2h.8zM74.7 13.3v1.6h1.6v.6h-1.6v1.7h2.1v.6h-2.7v-5h2.7v.6h-2.1zM83.1 16.1H82v1.7h-.6v-5h1.8c.9 0 1.6.6 1.6 1.7 0 .8-.5 1.4-1.1 1.6l1.1 1.8h-.7l-1-1.8zm-1.1-.6h1.2c.6 0 1-.4 1-1.1 0-.7-.5-1.1-1-1.1H82v2.2zM90.1 13.3v1.6h1.6v.6h-1.6v1.7h2.1v.6h-2.7v-5h2.7v.6h-2.1zM100.8 15.3c0 1.4-1 2.5-2.4 2.5h-1.6v-5h1.6c1.5 0 2.4 1.1 2.4 2.5zm-.6 0c0-1.2-.8-1.9-1.8-1.9h-1v3.9h1c1.1-.1 1.8-.8 1.8-2zM114.6 16.4c0 .9-.7 1.4-1.7 1.4h-1.6v-5h1.5c1 0 1.6.5 1.6 1.3 0 .5-.2.8-.6 1 .4.3.8.7.8 1.3zm-2.7-1.5h.9c.6 0 1-.2 1-.8 0-.5-.3-.8-1-.8h-.9v1.6zm2.1 1.5c0-.6-.4-.9-1.1-.9h-1v1.8h1c.7-.1 1.1-.4 1.1-.9zM122.7 12.8l-1.8 2.9v2.1h-.6v-2.1l-1.8-2.9h.7l1.4 2.3 1.4-2.3h.7z"/></g><g><path class="st0" d="M32.9 60.5v1.4h1.6v.5h-1.6v2.1h-.5V60h2.4v.5h-1.9zM40.5 64.5c-1.1 0-1.7-.6-1.7-1.9v-2.7h.5v2.7c0 1 .5 1.4 1.2 1.4s1.2-.4 1.2-1.4v-2.7h.5v2.7c.1 1.3-.6 1.9-1.7 1.9zM48.9 63.9v.5h-2.4v-4.5h.5v4h1.9zM55.4 63.9v.5H53v-4.5h.5v4h1.9zM65.3 60.5v1.4h1.4v.5h-1.4V64h1.9v.5h-2.4V60h2.4v.5h-1.9zM73.9 62.5v.5h-2.3v-.5h2.3zM80.6 60.4c-1 0-1.8.8-1.8 1.8s.8 1.8 1.8 1.8c.6 0 1-.3 1.3-.5v.6c-.3.2-.7.5-1.3.5-1.3 0-2.2-1-2.2-2.3 0-1.3 1-2.3 2.2-2.3.6 0 1.1.2 1.3.5v.6c-.2-.4-.7-.7-1.3-.7zM85.8 62.2c0-1.3 1-2.3 2.3-2.3 1.3 0 2.3 1 2.3 2.3s-1 2.3-2.3 2.3c-1.3 0-2.3-1-2.3-2.3zm4 0c0-1-.7-1.8-1.7-1.8s-1.7.8-1.7 1.8.7 1.8 1.7 1.8 1.7-.8 1.7-1.8zM99.1 59.9v4.5h-.5v-3.5L97 63.5h-.2l-1.6-2.6v3.5h-.5v-4.5h.5l1.7 2.8 1.7-2.8h.5zM107.9 59.9v4.5h-.5v-3.5l-1.6 2.6h-.2l-1.6-2.6v3.5h-.5v-4.5h.5l1.7 2.8 1.7-2.8h.5zM112.6 60.5v1.4h1.4v.5h-1.4V64h1.9v.5h-2.4V60h2.4v.5h-1.9zM120.2 62.9h-1v1.5h-.5v-4.5h1.6c.8 0 1.5.6 1.5 1.5 0 .7-.4 1.2-1 1.4l1 1.6h-.6l-1-1.5zm-1-.5h1.1c.5 0 .9-.4.9-1s-.4-1-.9-1h-1.1v2zM128 60.4c-1 0-1.8.8-1.8 1.8S127 64 128 64c.6 0 1-.3 1.3-.5v.6c-.3.2-.7.5-1.3.5-1.3 0-2.2-1-2.2-2.3 0-1.3 1-2.3 2.2-2.3.6 0 1.1.2 1.3.5v.6c-.3-.4-.7-.7-1.3-.7zM133.9 60.5v1.4h1.4v.5h-1.4V64h1.9v.5h-2.4V60h2.4v.5h-1.9z"/></g></svg>